<?xml version="1.0" encoding="UTF-8" standalone="no"?>
<!-- Created with Inkscape (http://www.inkscape.org/) -->

<svg
   version="1.1"
   id="svg9"
   xml:space="preserve"
   width="433.01776"
   height="255"
   viewBox="0 0 649.52664 382.5"
   sodipodi:docname="theater_outcomes_by_launch_date.svg"
   inkscape:version="1.1.1 (3bf5ae0d25, 2021-09-20)"
   xmlns:inkscape="http://www.inkscape.org/namespaces/inkscape"
   xmlns:sodipodi="http://sodipodi.sourceforge.net/DTD/sodipodi-0.dtd"
   xmlns="http://www.w3.org/2000/svg"
   xmlns:svg="http://www.w3.org/2000/svg"><defs
     id="defs13"><clipPath
       clipPathUnits="userSpaceOnUse"
       id="clipPath23"><path
         d="M 50.4,446.64 H 552.96 V 738 H 50.4 Z"
         clip-rule="evenodd"
         id="path21" /></clipPath><clipPath
       clipPathUnits="userSpaceOnUse"
       id="clipPath41"><path
         d="M 106.2,500.16 H 518.4 V 701.28 H 106.2 Z"
         clip-rule="evenodd"
         id="path39" /></clipPath><clipPath
       clipPathUnits="userSpaceOnUse"
       id="clipPath99"><path
         d="M 106.2,500.16 H 518.4 V 701.28 H 106.2 Z"
         clip-rule="evenodd"
         id="path97" /></clipPath><clipPath
       clipPathUnits="userSpaceOnUse"
       id="clipPath157"><path
         d="M 106.2,500.16 H 518.4 V 701.28 H 106.2 Z"
         clip-rule="evenodd"
         id="path155" /></clipPath><clipPath
       clipPathUnits="userSpaceOnUse"
       id="clipPath211"><path
         d="M 50.4,451.56 H 537.12 V 738 H 50.4 Z"
         clip-rule="evenodd"
         id="path209" /></clipPath><clipPath
       clipPathUnits="userSpaceOnUse"
       id="clipPath223"><path
         d="M 50.4,451.56 H 537.12 V 738 H 50.4 Z"
         clip-rule="evenodd"
         id="path221" /></clipPath><clipPath
       clipPathUnits="userSpaceOnUse"
       id="clipPath235"><path
         d="M 50.4,451.56 H 537.12 V 738 H 50.4 Z"
         clip-rule="evenodd"
         id="path233" /></clipPath><clipPath
       clipPathUnits="userSpaceOnUse"
       id="clipPath247"><path
         d="M 50.4,451.56 H 537.12 V 738 H 50.4 Z"
         clip-rule="evenodd"
         id="path245" /></clipPath><clipPath
       clipPathUnits="userSpaceOnUse"
       id="clipPath259"><path
         d="M 50.4,451.56 H 537.12 V 738 H 50.4 Z"
         clip-rule="evenodd"
         id="path257" /></clipPath><clipPath
       clipPathUnits="userSpaceOnUse"
       id="clipPath271"><path
         d="M 50.4,451.56 H 537.12 V 738 H 50.4 Z"
         clip-rule="evenodd"
         id="path269" /></clipPath><clipPath
       clipPathUnits="userSpaceOnUse"
       id="clipPath283"><path
         d="M 50.4,451.56 H 537.12 V 738 H 50.4 Z"
         clip-rule="evenodd"
         id="path281" /></clipPath><clipPath
       clipPathUnits="userSpaceOnUse"
       id="clipPath295"><path
         d="M 50.4,451.56 H 537.12 V 738 H 50.4 Z"
         clip-rule="evenodd"
         id="path293" /></clipPath><clipPath
       clipPathUnits="userSpaceOnUse"
       id="clipPath307"><path
         d="M 50.4,451.56 H 537.12 V 738 H 50.4 Z"
         clip-rule="evenodd"
         id="path305" /></clipPath><clipPath
       clipPathUnits="userSpaceOnUse"
       id="clipPath319"><path
         d="M 50.4,451.56 H 537.12 V 738 H 50.4 Z"
         clip-rule="evenodd"
         id="path317" /></clipPath><clipPath
       clipPathUnits="userSpaceOnUse"
       id="clipPath331"><path
         d="M 50.4,451.56 H 537.12 V 738 H 50.4 Z"
         clip-rule="evenodd"
         id="path329" /></clipPath><clipPath
       clipPathUnits="userSpaceOnUse"
       id="clipPath343"><path
         d="M 50.4,451.56 H 537.12 V 738 H 50.4 Z"
         clip-rule="evenodd"
         id="path341" /></clipPath><clipPath
       clipPathUnits="userSpaceOnUse"
       id="clipPath355"><path
         d="M 50.4,451.56 H 537.12 V 738 H 50.4 Z"
         clip-rule="evenodd"
         id="path353" /></clipPath><clipPath
       clipPathUnits="userSpaceOnUse"
       id="clipPath367"><path
         d="M 50.4,451.56 H 537.12 V 738 H 50.4 Z"
         clip-rule="evenodd"
         id="path365" /></clipPath><clipPath
       clipPathUnits="userSpaceOnUse"
       id="clipPath379"><path
         d="M 50.4,451.56 H 537.12 V 738 H 50.4 Z"
         clip-rule="evenodd"
         id="path377" /></clipPath><clipPath
       clipPathUnits="userSpaceOnUse"
       id="clipPath391"><path
         d="M 50.4,451.56 H 537.12 V 738 H 50.4 Z"
         clip-rule="evenodd"
         id="path389" /></clipPath><clipPath
       clipPathUnits="userSpaceOnUse"
       id="clipPath403"><path
         d="M 50.4,451.56 H 537.12 V 738 H 50.4 Z"
         clip-rule="evenodd"
         id="path401" /></clipPath><clipPath
       clipPathUnits="userSpaceOnUse"
       id="clipPath415"><path
         d="M 50.4,451.56 H 537.12 V 738 H 50.4 Z"
         clip-rule="evenodd"
         id="path413" /></clipPath><clipPath
       clipPathUnits="userSpaceOnUse"
       id="clipPath427"><path
         d="M 50.4,451.56 H 537.12 V 738 H 50.4 Z"
         clip-rule="evenodd"
         id="path425" /></clipPath><clipPath
       clipPathUnits="userSpaceOnUse"
       id="clipPath439"><path
         d="M 50.4,451.56 H 537.12 V 738 H 50.4 Z"
         clip-rule="evenodd"
         id="path437" /></clipPath><clipPath
       clipPathUnits="userSpaceOnUse"
       id="clipPath451"><path
         d="M 50.4,451.56 H 537.12 V 738 H 50.4 Z"
         clip-rule="evenodd"
         id="path449" /></clipPath><clipPath
       clipPathUnits="userSpaceOnUse"
       id="clipPath463"><path
         d="M 50.4,451.56 H 537.12 V 738 H 50.4 Z"
         clip-rule="evenodd"
         id="path461" /></clipPath><clipPath
       clipPathUnits="userSpaceOnUse"
       id="clipPath485"><path
         d="M 50.4,451.56 H 537.12 V 738 H 50.4 Z"
         clip-rule="evenodd"
         id="path483" /></clipPath><clipPath
       clipPathUnits="userSpaceOnUse"
       id="clipPath503"><path
         d="M 50.4,451.56 H 537.12 V 738 H 50.4 Z"
         clip-rule="evenodd"
         id="path501" /></clipPath><clipPath
       clipPathUnits="userSpaceOnUse"
       id="clipPath521"><path
         d="M 50.4,451.56 H 537.12 V 738 H 50.4 Z"
         clip-rule="evenodd"
         id="path519" /></clipPath><clipPath
       clipPathUnits="userSpaceOnUse"
       id="clipPath533"><path
         d="M 50.4,446.64 H 552.96 V 738 H 50.4 Z"
         clip-rule="evenodd"
         id="path531" /></clipPath></defs><sodipodi:namedview
     id="namedview11"
     pagecolor="#ffffff"
     bordercolor="#666666"
     borderopacity="1.0"
     inkscape:pageshadow="2"
     inkscape:pageopacity="0.0"
     inkscape:pagecheckerboard="0"
     showgrid="false"
     fit-margin-top="0"
     fit-margin-left="0"
     fit-margin-right="0"
     fit-margin-bottom="0"
     inkscape:zoom="0.72064394"
     inkscape:cx="364.25756"
     inkscape:cy="479.43233"
     inkscape:window-width="1920"
     inkscape:window-height="1011"
     inkscape:window-x="3191"
     inkscape:window-y="-9"
     inkscape:window-maximized="1"
     inkscape:current-layer="g15" /><g
     id="g15"
     inkscape:groupmode="layer"
     inkscape:label="theater_outcomes_by_launch_date"
     transform="matrix(1.3333333,0,0,-1.3333333,-67.199998,983.99998)"><g
       id="g17"><g
         id="g19"
         clip-path="url(#clipPath23)"><path
           d="M 50.4,451.5 H 537.17 V 738 H 50.4 Z"
           style="fill:#ffffff;fill-opacity:1;fill-rule:evenodd;stroke:none"
           id="path25" /></g></g><path
       d="M 106.26,534.24 H 517.72 M 106.26,567.6 H 517.72 M 106.26,600.96 H 517.72 M 106.26,634.44 H 517.72 M 106.26,667.8 h 411.46 m -411.46,33.37 h 411.46"
       style="fill:none;stroke:#f2f2f2;stroke-width:0.75;stroke-linecap:butt;stroke-linejoin:round;stroke-miterlimit:10;stroke-dasharray:none;stroke-opacity:1"
       id="path27" /><path
       d="M 106.26,701.17 V 500.84 m 37.38,200.33 V 500.84 m 37.44,200.33 V 500.84 m 37.44,200.33 V 500.84 m 37.32,200.33 V 500.84 m 37.44,200.33 V 500.84 m 37.44,200.33 V 500.84 m 37.32,200.33 V 500.84 m 37.44,200.33 V 500.84 m 37.44,200.33 V 500.84 m 37.44,200.33 V 500.84 m 37.36,200.33 V 500.84"
       style="fill:none;stroke:#f2f2f2;stroke-width:0.75;stroke-linecap:butt;stroke-linejoin:round;stroke-miterlimit:10;stroke-dasharray:none;stroke-opacity:1"
       id="path29" /><path
       d="M 106.26,500.84 H 517.72 V 701.17 H 106.26 Z"
       style="fill:none;stroke:#bfbfbf;stroke-width:0.75;stroke-linecap:butt;stroke-linejoin:round;stroke-miterlimit:10;stroke-dasharray:none;stroke-opacity:1"
       id="path31" /><path
       d="M 106.26,500.84 H 517.72"
       style="fill:none;stroke:#d9d9d9;stroke-width:0.75;stroke-linecap:butt;stroke-linejoin:round;stroke-miterlimit:10;stroke-dasharray:none;stroke-opacity:1"
       id="path33" /><g
       id="g35"><g
         id="g37"
         clip-path="url(#clipPath41)"><path
           d="m 106.26,594.36 37.38,24.96 37.44,-24.96 37.44,24.96 37.32,66.83 37.44,-18.35 37.44,-21.72 37.32,-25.08 37.44,-21.72 37.44,10.08 37.44,-18.36 37.36,-28.39"
           style="fill:none;stroke:#4472c4;stroke-width:1.75;stroke-linecap:round;stroke-linejoin:round;stroke-miterlimit:10;stroke-dasharray:none;stroke-opacity:1"
           id="path43" /></g></g><path
       d="m 108.84,594.36 c 0,-1.39 -1.13,-2.52 -2.52,-2.52 -1.39,0 -2.52,1.13 -2.52,2.52 0,1.39 1.13,2.52 2.52,2.52 1.39,0 2.52,-1.13 2.52,-2.52 z"
       style="fill:#4472c4;fill-opacity:1;fill-rule:nonzero;stroke:none"
       id="path45" /><path
       d="m 108.84,594.36 c 0,-1.39 -1.13,-2.52 -2.52,-2.52 -1.39,0 -2.52,1.13 -2.52,2.52 0,1.39 1.13,2.52 2.52,2.52 1.39,0 2.52,-1.13 2.52,-2.52 z"
       style="fill:none;stroke:#4472c4;stroke-width:0.75;stroke-linecap:butt;stroke-linejoin:round;stroke-miterlimit:10;stroke-dasharray:none;stroke-opacity:1"
       id="path47" /><path
       d="m 146.16,619.32 c 0,-1.39 -1.13,-2.52 -2.52,-2.52 -1.39,0 -2.52,1.13 -2.52,2.52 0,1.39 1.13,2.52 2.52,2.52 1.39,0 2.52,-1.13 2.52,-2.52 z"
       style="fill:#4472c4;fill-opacity:1;fill-rule:nonzero;stroke:none"
       id="path49" /><path
       d="m 146.16,619.32 c 0,-1.39 -1.13,-2.52 -2.52,-2.52 -1.39,0 -2.52,1.13 -2.52,2.52 0,1.39 1.13,2.52 2.52,2.52 1.39,0 2.52,-1.13 2.52,-2.52 z"
       style="fill:none;stroke:#4472c4;stroke-width:0.75;stroke-linecap:butt;stroke-linejoin:round;stroke-miterlimit:10;stroke-dasharray:none;stroke-opacity:1"
       id="path51" /><path
       d="m 183.6,594.36 c 0,-1.39 -1.13,-2.52 -2.52,-2.52 -1.39,0 -2.52,1.13 -2.52,2.52 0,1.39 1.13,2.52 2.52,2.52 1.39,0 2.52,-1.13 2.52,-2.52 z"
       style="fill:#4472c4;fill-opacity:1;fill-rule:nonzero;stroke:none"
       id="path53" /><path
       d="m 183.6,594.36 c 0,-1.39 -1.13,-2.52 -2.52,-2.52 -1.39,0 -2.52,1.13 -2.52,2.52 0,1.39 1.13,2.52 2.52,2.52 1.39,0 2.52,-1.13 2.52,-2.52 z"
       style="fill:none;stroke:#4472c4;stroke-width:0.75;stroke-linecap:butt;stroke-linejoin:round;stroke-miterlimit:10;stroke-dasharray:none;stroke-opacity:1"
       id="path55" /><path
       d="m 221.04,619.32 c 0,-1.39 -1.13,-2.52 -2.52,-2.52 -1.39,0 -2.52,1.13 -2.52,2.52 0,1.39 1.13,2.52 2.52,2.52 1.39,0 2.52,-1.13 2.52,-2.52 z"
       style="fill:#4472c4;fill-opacity:1;fill-rule:nonzero;stroke:none"
       id="path57" /><path
       d="m 221.04,619.32 c 0,-1.39 -1.13,-2.52 -2.52,-2.52 -1.39,0 -2.52,1.13 -2.52,2.52 0,1.39 1.13,2.52 2.52,2.52 1.39,0 2.52,-1.13 2.52,-2.52 z"
       style="fill:none;stroke:#4472c4;stroke-width:0.75;stroke-linecap:butt;stroke-linejoin:round;stroke-miterlimit:10;stroke-dasharray:none;stroke-opacity:1"
       id="path59" /><path
       d="m 258.36,686.16 c 0,-1.39 -1.13,-2.52 -2.52,-2.52 -1.39,0 -2.52,1.13 -2.52,2.52 0,1.39 1.13,2.52 2.52,2.52 1.39,0 2.52,-1.13 2.52,-2.52 z"
       style="fill:#4472c4;fill-opacity:1;fill-rule:nonzero;stroke:none"
       id="path61" /><path
       d="m 258.36,686.16 c 0,-1.39 -1.13,-2.52 -2.52,-2.52 -1.39,0 -2.52,1.13 -2.52,2.52 0,1.39 1.13,2.52 2.52,2.52 1.39,0 2.52,-1.13 2.52,-2.52 z"
       style="fill:none;stroke:#4472c4;stroke-width:0.75;stroke-linecap:butt;stroke-linejoin:round;stroke-miterlimit:10;stroke-dasharray:none;stroke-opacity:1"
       id="path63" /><path
       d="m 295.8,667.8 c 0,-1.39 -1.13,-2.52 -2.52,-2.52 -1.39,0 -2.52,1.13 -2.52,2.52 0,1.39 1.13,2.52 2.52,2.52 1.39,0 2.52,-1.13 2.52,-2.52 z"
       style="fill:#4472c4;fill-opacity:1;fill-rule:nonzero;stroke:none"
       id="path65" /><path
       d="m 295.8,667.8 c 0,-1.39 -1.13,-2.52 -2.52,-2.52 -1.39,0 -2.52,1.13 -2.52,2.52 0,1.39 1.13,2.52 2.52,2.52 1.39,0 2.52,-1.13 2.52,-2.52 z"
       style="fill:none;stroke:#4472c4;stroke-width:0.75;stroke-linecap:butt;stroke-linejoin:round;stroke-miterlimit:10;stroke-dasharray:none;stroke-opacity:1"
       id="path67" /><path
       d="m 333.24,646.08 c 0,-1.39 -1.13,-2.52 -2.52,-2.52 -1.39,0 -2.52,1.13 -2.52,2.52 0,1.39 1.13,2.52 2.52,2.52 1.39,0 2.52,-1.13 2.52,-2.52 z"
       style="fill:#4472c4;fill-opacity:1;fill-rule:nonzero;stroke:none"
       id="path69" /><path
       d="m 333.24,646.08 c 0,-1.39 -1.13,-2.52 -2.52,-2.52 -1.39,0 -2.52,1.13 -2.52,2.52 0,1.39 1.13,2.52 2.52,2.52 1.39,0 2.52,-1.13 2.52,-2.52 z"
       style="fill:none;stroke:#4472c4;stroke-width:0.75;stroke-linecap:butt;stroke-linejoin:round;stroke-miterlimit:10;stroke-dasharray:none;stroke-opacity:1"
       id="path71" /><path
       d="m 370.56,621 c 0,-1.39 -1.13,-2.52 -2.52,-2.52 -1.39,0 -2.52,1.13 -2.52,2.52 0,1.39 1.13,2.52 2.52,2.52 1.39,0 2.52,-1.13 2.52,-2.52 z"
       style="fill:#4472c4;fill-opacity:1;fill-rule:nonzero;stroke:none"
       id="path73" /><path
       d="m 370.56,621 c 0,-1.39 -1.13,-2.52 -2.52,-2.52 -1.39,0 -2.52,1.13 -2.52,2.52 0,1.39 1.13,2.52 2.52,2.52 1.39,0 2.52,-1.13 2.52,-2.52 z"
       style="fill:none;stroke:#4472c4;stroke-width:0.75;stroke-linecap:butt;stroke-linejoin:round;stroke-miterlimit:10;stroke-dasharray:none;stroke-opacity:1"
       id="path75" /><path
       d="m 408,599.28 c 0,-1.39 -1.13,-2.52 -2.52,-2.52 -1.39,0 -2.52,1.13 -2.52,2.52 0,1.39 1.13,2.52 2.52,2.52 1.39,0 2.52,-1.13 2.52,-2.52 z"
       style="fill:#4472c4;fill-opacity:1;fill-rule:nonzero;stroke:none"
       id="path77" /><path
       d="m 408,599.28 c 0,-1.39 -1.13,-2.52 -2.52,-2.52 -1.39,0 -2.52,1.13 -2.52,2.52 0,1.39 1.13,2.52 2.52,2.52 1.39,0 2.52,-1.13 2.52,-2.52 z"
       style="fill:none;stroke:#4472c4;stroke-width:0.75;stroke-linecap:butt;stroke-linejoin:round;stroke-miterlimit:10;stroke-dasharray:none;stroke-opacity:1"
       id="path79" /><path
       d="m 445.44,609.36 c 0,-1.39 -1.13,-2.52 -2.52,-2.52 -1.39,0 -2.52,1.13 -2.52,2.52 0,1.39 1.13,2.52 2.52,2.52 1.39,0 2.52,-1.13 2.52,-2.52 z"
       style="fill:#4472c4;fill-opacity:1;fill-rule:nonzero;stroke:none"
       id="path81" /><path
       d="m 445.44,609.36 c 0,-1.39 -1.13,-2.52 -2.52,-2.52 -1.39,0 -2.52,1.13 -2.52,2.52 0,1.39 1.13,2.52 2.52,2.52 1.39,0 2.52,-1.13 2.52,-2.52 z"
       style="fill:none;stroke:#4472c4;stroke-width:0.75;stroke-linecap:butt;stroke-linejoin:round;stroke-miterlimit:10;stroke-dasharray:none;stroke-opacity:1"
       id="path83" /><path
       d="m 482.88,591 c 0,-1.39 -1.13,-2.52 -2.52,-2.52 -1.39,0 -2.52,1.13 -2.52,2.52 0,1.39 1.13,2.52 2.52,2.52 1.39,0 2.52,-1.13 2.52,-2.52 z"
       style="fill:#4472c4;fill-opacity:1;fill-rule:nonzero;stroke:none"
       id="path85" /><path
       d="m 482.88,591 c 0,-1.39 -1.13,-2.52 -2.52,-2.52 -1.39,0 -2.52,1.13 -2.52,2.52 0,1.39 1.13,2.52 2.52,2.52 1.39,0 2.52,-1.13 2.52,-2.52 z"
       style="fill:none;stroke:#4472c4;stroke-width:0.75;stroke-linecap:butt;stroke-linejoin:round;stroke-miterlimit:10;stroke-dasharray:none;stroke-opacity:1"
       id="path87" /><path
       d="m 520.2,562.56 c 0,-1.39 -1.13,-2.52 -2.52,-2.52 -1.39,0 -2.52,1.13 -2.52,2.52 0,1.39 1.13,2.52 2.52,2.52 1.39,0 2.52,-1.13 2.52,-2.52 z"
       style="fill:#4472c4;fill-opacity:1;fill-rule:nonzero;stroke:none"
       id="path89" /><path
       d="m 520.2,562.56 c 0,-1.39 -1.13,-2.52 -2.52,-2.52 -1.39,0 -2.52,1.13 -2.52,2.52 0,1.39 1.13,2.52 2.52,2.52 1.39,0 2.52,-1.13 2.52,-2.52 z"
       style="fill:none;stroke:#4472c4;stroke-width:0.75;stroke-linecap:butt;stroke-linejoin:round;stroke-miterlimit:10;stroke-dasharray:none;stroke-opacity:1"
       id="path91" /><g
       id="g93"><g
         id="g95"
         clip-path="url(#clipPath99)"><path
           d="m 106.26,555.96 37.38,9.96 37.44,-9.96 37.44,11.64 37.32,20.05 37.44,-5.05 37.44,1.68 37.32,-4.92 37.44,-21.72 37.44,26.64 37.44,-31.69 37.36,6.73"
           style="fill:none;stroke:#ffc000;stroke-width:1.75;stroke-linecap:round;stroke-linejoin:round;stroke-miterlimit:10;stroke-dasharray:none;stroke-opacity:1"
           id="path101" /></g></g><path
       d="m 108.84,555.96 c 0,-1.39 -1.13,-2.52 -2.52,-2.52 -1.39,0 -2.52,1.13 -2.52,2.52 0,1.39 1.13,2.52 2.52,2.52 1.39,0 2.52,-1.13 2.52,-2.52 z"
       style="fill:#ffc000;fill-opacity:1;fill-rule:nonzero;stroke:none"
       id="path103" /><path
       d="m 108.84,555.96 c 0,-1.39 -1.13,-2.52 -2.52,-2.52 -1.39,0 -2.52,1.13 -2.52,2.52 0,1.39 1.13,2.52 2.52,2.52 1.39,0 2.52,-1.13 2.52,-2.52 z"
       style="fill:none;stroke:#ffc000;stroke-width:0.75;stroke-linecap:butt;stroke-linejoin:round;stroke-miterlimit:10;stroke-dasharray:none;stroke-opacity:1"
       id="path105" /><path
       d="m 146.16,565.92 c 0,-1.39 -1.13,-2.52 -2.52,-2.52 -1.39,0 -2.52,1.13 -2.52,2.52 0,1.39 1.13,2.52 2.52,2.52 1.39,0 2.52,-1.13 2.52,-2.52 z"
       style="fill:#ffc000;fill-opacity:1;fill-rule:nonzero;stroke:none"
       id="path107" /><path
       d="m 146.16,565.92 c 0,-1.39 -1.13,-2.52 -2.52,-2.52 -1.39,0 -2.52,1.13 -2.52,2.52 0,1.39 1.13,2.52 2.52,2.52 1.39,0 2.52,-1.13 2.52,-2.52 z"
       style="fill:none;stroke:#ffc000;stroke-width:0.75;stroke-linecap:butt;stroke-linejoin:round;stroke-miterlimit:10;stroke-dasharray:none;stroke-opacity:1"
       id="path109" /><path
       d="m 183.6,555.96 c 0,-1.39 -1.13,-2.52 -2.52,-2.52 -1.39,0 -2.52,1.13 -2.52,2.52 0,1.39 1.13,2.52 2.52,2.52 1.39,0 2.52,-1.13 2.52,-2.52 z"
       style="fill:#ffc000;fill-opacity:1;fill-rule:nonzero;stroke:none"
       id="path111" /><path
       d="m 183.6,555.96 c 0,-1.39 -1.13,-2.52 -2.52,-2.52 -1.39,0 -2.52,1.13 -2.52,2.52 0,1.39 1.13,2.52 2.52,2.52 1.39,0 2.52,-1.13 2.52,-2.52 z"
       style="fill:none;stroke:#ffc000;stroke-width:0.75;stroke-linecap:butt;stroke-linejoin:round;stroke-miterlimit:10;stroke-dasharray:none;stroke-opacity:1"
       id="path113" /><path
       d="m 221.04,567.6 c 0,-1.39 -1.13,-2.52 -2.52,-2.52 -1.39,0 -2.52,1.13 -2.52,2.52 0,1.39 1.13,2.52 2.52,2.52 1.39,0 2.52,-1.13 2.52,-2.52 z"
       style="fill:#ffc000;fill-opacity:1;fill-rule:nonzero;stroke:none"
       id="path115" /><path
       d="m 221.04,567.6 c 0,-1.39 -1.13,-2.52 -2.52,-2.52 -1.39,0 -2.52,1.13 -2.52,2.52 0,1.39 1.13,2.52 2.52,2.52 1.39,0 2.52,-1.13 2.52,-2.52 z"
       style="fill:none;stroke:#ffc000;stroke-width:0.75;stroke-linecap:butt;stroke-linejoin:round;stroke-miterlimit:10;stroke-dasharray:none;stroke-opacity:1"
       id="path117" /><path
       d="m 258.36,587.64 c 0,-1.39 -1.13,-2.52 -2.52,-2.52 -1.39,0 -2.52,1.13 -2.52,2.52 0,1.39 1.13,2.52 2.52,2.52 1.39,0 2.52,-1.13 2.52,-2.52 z"
       style="fill:#ffc000;fill-opacity:1;fill-rule:nonzero;stroke:none"
       id="path119" /><path
       d="m 258.36,587.64 c 0,-1.39 -1.13,-2.52 -2.52,-2.52 -1.39,0 -2.52,1.13 -2.52,2.52 0,1.39 1.13,2.52 2.52,2.52 1.39,0 2.52,-1.13 2.52,-2.52 z"
       style="fill:none;stroke:#ffc000;stroke-width:0.75;stroke-linecap:butt;stroke-linejoin:round;stroke-miterlimit:10;stroke-dasharray:none;stroke-opacity:1"
       id="path121" /><path
       d="m 295.8,582.6 c 0,-1.39 -1.13,-2.52 -2.52,-2.52 -1.39,0 -2.52,1.13 -2.52,2.52 0,1.39 1.13,2.52 2.52,2.52 1.39,0 2.52,-1.13 2.52,-2.52 z"
       style="fill:#ffc000;fill-opacity:1;fill-rule:nonzero;stroke:none"
       id="path123" /><path
       d="m 295.8,582.6 c 0,-1.39 -1.13,-2.52 -2.52,-2.52 -1.39,0 -2.52,1.13 -2.52,2.52 0,1.39 1.13,2.52 2.52,2.52 1.39,0 2.52,-1.13 2.52,-2.52 z"
       style="fill:none;stroke:#ffc000;stroke-width:0.75;stroke-linecap:butt;stroke-linejoin:round;stroke-miterlimit:10;stroke-dasharray:none;stroke-opacity:1"
       id="path125" /><path
       d="m 333.24,584.28 c 0,-1.39 -1.13,-2.52 -2.52,-2.52 -1.39,0 -2.52,1.13 -2.52,2.52 0,1.39 1.13,2.52 2.52,2.52 1.39,0 2.52,-1.13 2.52,-2.52 z"
       style="fill:#ffc000;fill-opacity:1;fill-rule:nonzero;stroke:none"
       id="path127" /><path
       d="m 333.24,584.28 c 0,-1.39 -1.13,-2.52 -2.52,-2.52 -1.39,0 -2.52,1.13 -2.52,2.52 0,1.39 1.13,2.52 2.52,2.52 1.39,0 2.52,-1.13 2.52,-2.52 z"
       style="fill:none;stroke:#ffc000;stroke-width:0.75;stroke-linecap:butt;stroke-linejoin:round;stroke-miterlimit:10;stroke-dasharray:none;stroke-opacity:1"
       id="path129" /><path
       d="m 370.56,579.36 c 0,-1.39 -1.13,-2.52 -2.52,-2.52 -1.39,0 -2.52,1.13 -2.52,2.52 0,1.39 1.13,2.52 2.52,2.52 1.39,0 2.52,-1.13 2.52,-2.52 z"
       style="fill:#ffc000;fill-opacity:1;fill-rule:nonzero;stroke:none"
       id="path131" /><path
       d="m 370.56,579.36 c 0,-1.39 -1.13,-2.52 -2.52,-2.52 -1.39,0 -2.52,1.13 -2.52,2.52 0,1.39 1.13,2.52 2.52,2.52 1.39,0 2.52,-1.13 2.52,-2.52 z"
       style="fill:none;stroke:#ffc000;stroke-width:0.75;stroke-linecap:butt;stroke-linejoin:round;stroke-miterlimit:10;stroke-dasharray:none;stroke-opacity:1"
       id="path133" /><path
       d="m 408,557.64 c 0,-1.39 -1.13,-2.52 -2.52,-2.52 -1.39,0 -2.52,1.13 -2.52,2.52 0,1.39 1.13,2.52 2.52,2.52 1.39,0 2.52,-1.13 2.52,-2.52 z"
       style="fill:#ffc000;fill-opacity:1;fill-rule:nonzero;stroke:none"
       id="path135" /><path
       d="m 408,557.64 c 0,-1.39 -1.13,-2.52 -2.52,-2.52 -1.39,0 -2.52,1.13 -2.52,2.52 0,1.39 1.13,2.52 2.52,2.52 1.39,0 2.52,-1.13 2.52,-2.52 z"
       style="fill:none;stroke:#ffc000;stroke-width:0.75;stroke-linecap:butt;stroke-linejoin:round;stroke-miterlimit:10;stroke-dasharray:none;stroke-opacity:1"
       id="path137" /><path
       d="m 445.44,584.28 c 0,-1.39 -1.13,-2.52 -2.52,-2.52 -1.39,0 -2.52,1.13 -2.52,2.52 0,1.39 1.13,2.52 2.52,2.52 1.39,0 2.52,-1.13 2.52,-2.52 z"
       style="fill:#ffc000;fill-opacity:1;fill-rule:nonzero;stroke:none"
       id="path139" /><path
       d="m 445.44,584.28 c 0,-1.39 -1.13,-2.52 -2.52,-2.52 -1.39,0 -2.52,1.13 -2.52,2.52 0,1.39 1.13,2.52 2.52,2.52 1.39,0 2.52,-1.13 2.52,-2.52 z"
       style="fill:none;stroke:#ffc000;stroke-width:0.75;stroke-linecap:butt;stroke-linejoin:round;stroke-miterlimit:10;stroke-dasharray:none;stroke-opacity:1"
       id="path141" /><path
       d="m 482.88,552.6 c 0,-1.39 -1.13,-2.52 -2.52,-2.52 -1.39,0 -2.52,1.13 -2.52,2.52 0,1.39 1.13,2.52 2.52,2.52 1.39,0 2.52,-1.13 2.52,-2.52 z"
       style="fill:#ffc000;fill-opacity:1;fill-rule:nonzero;stroke:none"
       id="path143" /><path
       d="m 482.88,552.6 c 0,-1.39 -1.13,-2.52 -2.52,-2.52 -1.39,0 -2.52,1.13 -2.52,2.52 0,1.39 1.13,2.52 2.52,2.52 1.39,0 2.52,-1.13 2.52,-2.52 z"
       style="fill:none;stroke:#ffc000;stroke-width:0.75;stroke-linecap:butt;stroke-linejoin:round;stroke-miterlimit:10;stroke-dasharray:none;stroke-opacity:1"
       id="path145" /><path
       d="m 520.2,559.32 c 0,-1.39 -1.13,-2.52 -2.52,-2.52 -1.39,0 -2.52,1.13 -2.52,2.52 0,1.39 1.13,2.52 2.52,2.52 1.39,0 2.52,-1.13 2.52,-2.52 z"
       style="fill:#ffc000;fill-opacity:1;fill-rule:nonzero;stroke:none"
       id="path147" /><path
       d="m 520.2,559.32 c 0,-1.39 -1.13,-2.52 -2.52,-2.52 -1.39,0 -2.52,1.13 -2.52,2.52 0,1.39 1.13,2.52 2.52,2.52 1.39,0 2.52,-1.13 2.52,-2.52 z"
       style="fill:none;stroke:#ffc000;stroke-width:0.75;stroke-linecap:butt;stroke-linejoin:round;stroke-miterlimit:10;stroke-dasharray:none;stroke-opacity:1"
       id="path149" /><g
       id="g151"><g
         id="g153"
         clip-path="url(#clipPath157)"><path
           d="m 106.26,512.53 37.38,-6.73 h 37.44 l 37.44,-1.56 37.32,1.56 37.44,1.68 37.44,-4.97 37.32,4.97 h 37.44 m 74.88,-1.68 h 37.36"
           style="fill:none;stroke:#92d050;stroke-width:1.75;stroke-linecap:round;stroke-linejoin:round;stroke-miterlimit:10;stroke-dasharray:none;stroke-opacity:1"
           id="path159" /></g></g><path
       d="m 108.84,512.52 c 0,-1.39 -1.13,-2.52 -2.52,-2.52 -1.39,0 -2.52,1.13 -2.52,2.52 0,1.39 1.13,2.52 2.52,2.52 1.39,0 2.52,-1.13 2.52,-2.52 z"
       style="fill:#92d050;fill-opacity:1;fill-rule:nonzero;stroke:none"
       id="path161" /><path
       d="m 108.84,512.52 c 0,-1.39 -1.13,-2.52 -2.52,-2.52 -1.39,0 -2.52,1.13 -2.52,2.52 0,1.39 1.13,2.52 2.52,2.52 1.39,0 2.52,-1.13 2.52,-2.52 z"
       style="fill:none;stroke:#92d050;stroke-width:0.75;stroke-linecap:butt;stroke-linejoin:round;stroke-miterlimit:10;stroke-dasharray:none;stroke-opacity:1"
       id="path163" /><path
       d="m 146.16,505.8 c 0,-1.39 -1.13,-2.52 -2.52,-2.52 -1.39,0 -2.52,1.13 -2.52,2.52 0,1.39 1.13,2.52 2.52,2.52 1.39,0 2.52,-1.13 2.52,-2.52 z"
       style="fill:#92d050;fill-opacity:1;fill-rule:nonzero;stroke:none"
       id="path165" /><path
       d="m 146.16,505.8 c 0,-1.39 -1.13,-2.52 -2.52,-2.52 -1.39,0 -2.52,1.13 -2.52,2.52 0,1.39 1.13,2.52 2.52,2.52 1.39,0 2.52,-1.13 2.52,-2.52 z"
       style="fill:none;stroke:#92d050;stroke-width:0.75;stroke-linecap:butt;stroke-linejoin:round;stroke-miterlimit:10;stroke-dasharray:none;stroke-opacity:1"
       id="path167" /><path
       d="m 183.6,505.8 c 0,-1.39 -1.13,-2.52 -2.52,-2.52 -1.39,0 -2.52,1.13 -2.52,2.52 0,1.39 1.13,2.52 2.52,2.52 1.39,0 2.52,-1.13 2.52,-2.52 z"
       style="fill:#92d050;fill-opacity:1;fill-rule:nonzero;stroke:none"
       id="path169" /><path
       d="m 183.6,505.8 c 0,-1.39 -1.13,-2.52 -2.52,-2.52 -1.39,0 -2.52,1.13 -2.52,2.52 0,1.39 1.13,2.52 2.52,2.52 1.39,0 2.52,-1.13 2.52,-2.52 z"
       style="fill:none;stroke:#92d050;stroke-width:0.75;stroke-linecap:butt;stroke-linejoin:round;stroke-miterlimit:10;stroke-dasharray:none;stroke-opacity:1"
       id="path171" /><path
       d="m 221.04,504.24 c 0,-1.39 -1.13,-2.52 -2.52,-2.52 -1.39,0 -2.52,1.13 -2.52,2.52 0,1.39 1.13,2.52 2.52,2.52 1.39,0 2.52,-1.13 2.52,-2.52 z"
       style="fill:#92d050;fill-opacity:1;fill-rule:nonzero;stroke:none"
       id="path173" /><path
       d="m 221.04,504.24 c 0,-1.39 -1.13,-2.52 -2.52,-2.52 -1.39,0 -2.52,1.13 -2.52,2.52 0,1.39 1.13,2.52 2.52,2.52 1.39,0 2.52,-1.13 2.52,-2.52 z"
       style="fill:none;stroke:#92d050;stroke-width:0.75;stroke-linecap:butt;stroke-linejoin:round;stroke-miterlimit:10;stroke-dasharray:none;stroke-opacity:1"
       id="path175" /><path
       d="m 258.36,505.8 c 0,-1.39 -1.13,-2.52 -2.52,-2.52 -1.39,0 -2.52,1.13 -2.52,2.52 0,1.39 1.13,2.52 2.52,2.52 1.39,0 2.52,-1.13 2.52,-2.52 z"
       style="fill:#92d050;fill-opacity:1;fill-rule:nonzero;stroke:none"
       id="path177" /><path
       d="m 258.36,505.8 c 0,-1.39 -1.13,-2.52 -2.52,-2.52 -1.39,0 -2.52,1.13 -2.52,2.52 0,1.39 1.13,2.52 2.52,2.52 1.39,0 2.52,-1.13 2.52,-2.52 z"
       style="fill:none;stroke:#92d050;stroke-width:0.75;stroke-linecap:butt;stroke-linejoin:round;stroke-miterlimit:10;stroke-dasharray:none;stroke-opacity:1"
       id="path179" /><path
       d="m 295.8,507.48 c 0,-1.39 -1.13,-2.52 -2.52,-2.52 -1.39,0 -2.52,1.13 -2.52,2.52 0,1.39 1.13,2.52 2.52,2.52 1.39,0 2.52,-1.13 2.52,-2.52 z"
       style="fill:#92d050;fill-opacity:1;fill-rule:nonzero;stroke:none"
       id="path181" /><path
       d="m 295.8,507.48 c 0,-1.39 -1.13,-2.52 -2.52,-2.52 -1.39,0 -2.52,1.13 -2.52,2.52 0,1.39 1.13,2.52 2.52,2.52 1.39,0 2.52,-1.13 2.52,-2.52 z"
       style="fill:none;stroke:#92d050;stroke-width:0.75;stroke-linecap:butt;stroke-linejoin:round;stroke-miterlimit:10;stroke-dasharray:none;stroke-opacity:1"
       id="path183" /><path
       d="m 333.24,502.56 c 0,-1.39 -1.13,-2.52 -2.52,-2.52 -1.39,0 -2.52,1.13 -2.52,2.52 0,1.39 1.13,2.52 2.52,2.52 1.39,0 2.52,-1.13 2.52,-2.52 z"
       style="fill:#92d050;fill-opacity:1;fill-rule:nonzero;stroke:none"
       id="path185" /><path
       d="m 333.24,502.56 c 0,-1.39 -1.13,-2.52 -2.52,-2.52 -1.39,0 -2.52,1.13 -2.52,2.52 0,1.39 1.13,2.52 2.52,2.52 1.39,0 2.52,-1.13 2.52,-2.52 z"
       style="fill:none;stroke:#92d050;stroke-width:0.75;stroke-linecap:butt;stroke-linejoin:round;stroke-miterlimit:10;stroke-dasharray:none;stroke-opacity:1"
       id="path187" /><path
       d="m 370.56,507.48 c 0,-1.39 -1.13,-2.52 -2.52,-2.52 -1.39,0 -2.52,1.13 -2.52,2.52 0,1.39 1.13,2.52 2.52,2.52 1.39,0 2.52,-1.13 2.52,-2.52 z"
       style="fill:#92d050;fill-opacity:1;fill-rule:nonzero;stroke:none"
       id="path189" /><path
       d="m 370.56,507.48 c 0,-1.39 -1.13,-2.52 -2.52,-2.52 -1.39,0 -2.52,1.13 -2.52,2.52 0,1.39 1.13,2.52 2.52,2.52 1.39,0 2.52,-1.13 2.52,-2.52 z"
       style="fill:none;stroke:#92d050;stroke-width:0.75;stroke-linecap:butt;stroke-linejoin:round;stroke-miterlimit:10;stroke-dasharray:none;stroke-opacity:1"
       id="path191" /><path
       d="m 408,507.48 c 0,-1.39 -1.13,-2.52 -2.52,-2.52 -1.39,0 -2.52,1.13 -2.52,2.52 0,1.39 1.13,2.52 2.52,2.52 1.39,0 2.52,-1.13 2.52,-2.52 z"
       style="fill:#92d050;fill-opacity:1;fill-rule:nonzero;stroke:none"
       id="path193" /><path
       d="m 408,507.48 c 0,-1.39 -1.13,-2.52 -2.52,-2.52 -1.39,0 -2.52,1.13 -2.52,2.52 0,1.39 1.13,2.52 2.52,2.52 1.39,0 2.52,-1.13 2.52,-2.52 z"
       style="fill:none;stroke:#92d050;stroke-width:0.75;stroke-linecap:butt;stroke-linejoin:round;stroke-miterlimit:10;stroke-dasharray:none;stroke-opacity:1"
       id="path195" /><path
       d="m 482.88,505.8 c 0,-1.39 -1.13,-2.52 -2.52,-2.52 -1.39,0 -2.52,1.13 -2.52,2.52 0,1.39 1.13,2.52 2.52,2.52 1.39,0 2.52,-1.13 2.52,-2.52 z"
       style="fill:#92d050;fill-opacity:1;fill-rule:nonzero;stroke:none"
       id="path197" /><path
       d="m 482.88,505.8 c 0,-1.39 -1.13,-2.52 -2.52,-2.52 -1.39,0 -2.52,1.13 -2.52,2.52 0,1.39 1.13,2.52 2.52,2.52 1.39,0 2.52,-1.13 2.52,-2.52 z"
       style="fill:none;stroke:#92d050;stroke-width:0.75;stroke-linecap:butt;stroke-linejoin:round;stroke-miterlimit:10;stroke-dasharray:none;stroke-opacity:1"
       id="path199" /><path
       d="m 520.2,505.8 c 0,-1.39 -1.13,-2.52 -2.52,-2.52 -1.39,0 -2.52,1.13 -2.52,2.52 0,1.39 1.13,2.52 2.52,2.52 1.39,0 2.52,-1.13 2.52,-2.52 z"
       style="fill:#92d050;fill-opacity:1;fill-rule:nonzero;stroke:none"
       id="path201" /><path
       d="m 520.2,505.8 c 0,-1.39 -1.13,-2.52 -2.52,-2.52 -1.39,0 -2.52,1.13 -2.52,2.52 0,1.39 1.13,2.52 2.52,2.52 1.39,0 2.52,-1.13 2.52,-2.52 z"
       style="fill:none;stroke:#92d050;stroke-width:0.75;stroke-linecap:butt;stroke-linejoin:round;stroke-miterlimit:10;stroke-dasharray:none;stroke-opacity:1"
       id="path203" /><g
       id="g205"><g
         id="g207"
         clip-path="url(#clipPath211)"><text
           transform="matrix(1,0,0,-1,90.48,497.69)"
           style="font-variant:normal;font-weight:normal;font-size:11.04px;font-family:Calibri;-inkscape-font-specification:Calibri;writing-mode:lr-tb;fill:#595959;fill-opacity:1;fill-rule:nonzero;stroke:none"
           id="text215"><tspan
             x="0"
             y="0"
             id="tspan213">0</tspan></text></g></g><g
       id="g217"><g
         id="g219"
         clip-path="url(#clipPath223)"><text
           transform="matrix(1,0,0,-1,84.912,531.07)"
           style="font-variant:normal;font-weight:normal;font-size:11.04px;font-family:Calibri;-inkscape-font-specification:Calibri;writing-mode:lr-tb;fill:#595959;fill-opacity:1;fill-rule:nonzero;stroke:none"
           id="text227"><tspan
             x="0 5.51998"
             y="0"
             sodipodi:role="line"
             id="tspan225">20</tspan></text></g></g><g
       id="g229"><g
         id="g231"
         clip-path="url(#clipPath235)"><text
           transform="matrix(1,0,0,-1,84.912,564.46)"
           style="font-variant:normal;font-weight:normal;font-size:11.04px;font-family:Calibri;-inkscape-font-specification:Calibri;writing-mode:lr-tb;fill:#595959;fill-opacity:1;fill-rule:nonzero;stroke:none"
           id="text239"><tspan
             x="0 5.51998"
             y="0"
             sodipodi:role="line"
             id="tspan237">40</tspan></text></g></g><g
       id="g241"><g
         id="g243"
         clip-path="url(#clipPath247)"><text
           transform="matrix(1,0,0,-1,84.912,597.86)"
           style="font-variant:normal;font-weight:normal;font-size:11.04px;font-family:Calibri;-inkscape-font-specification:Calibri;writing-mode:lr-tb;fill:#595959;fill-opacity:1;fill-rule:nonzero;stroke:none"
           id="text251"><tspan
             x="0 5.51998"
             y="0"
             sodipodi:role="line"
             id="tspan249">60</tspan></text></g></g><g
       id="g253"><g
         id="g255"
         clip-path="url(#clipPath259)"><text
           transform="matrix(1,0,0,-1,84.912,631.25)"
           style="font-variant:normal;font-weight:normal;font-size:11.04px;font-family:Calibri;-inkscape-font-specification:Calibri;writing-mode:lr-tb;fill:#595959;fill-opacity:1;fill-rule:nonzero;stroke:none"
           id="text263"><tspan
             x="0 5.51998"
             y="0"
             sodipodi:role="line"
             id="tspan261">80</tspan></text></g></g><g
       id="g265"><g
         id="g267"
         clip-path="url(#clipPath271)"><text
           transform="matrix(1,0,0,-1,79.344,664.63)"
           style="font-variant:normal;font-weight:normal;font-size:11.04px;font-family:Calibri;-inkscape-font-specification:Calibri;writing-mode:lr-tb;fill:#595959;fill-opacity:1;fill-rule:nonzero;stroke:none"
           id="text275"><tspan
             x="0 5.52 11.1504"
             y="0"
             sodipodi:role="line"
             id="tspan273">100</tspan></text></g></g><g
       id="g277"><g
         id="g279"
         clip-path="url(#clipPath283)"><text
           transform="matrix(1,0,0,-1,79.344,698.04)"
           style="font-variant:normal;font-weight:normal;font-size:11.04px;font-family:Calibri;-inkscape-font-specification:Calibri;writing-mode:lr-tb;fill:#595959;fill-opacity:1;fill-rule:nonzero;stroke:none"
           id="text287"><tspan
             x="0 5.52 11.1504"
             y="0"
             sodipodi:role="line"
             id="tspan285">120</tspan></text></g></g><g
       id="g289"><g
         id="g291"
         clip-path="url(#clipPath295)"><text
           transform="matrix(1,0,0,-1,99,483.38)"
           style="font-variant:normal;font-weight:normal;font-size:11.04px;font-family:Calibri;-inkscape-font-specification:Calibri;writing-mode:lr-tb;fill:#595959;fill-opacity:1;fill-rule:nonzero;stroke:none"
           id="text299"><tspan
             x="0 3.4776001 8.7657604"
             y="0"
             sodipodi:role="line"
             id="tspan297">Jan</tspan></text></g></g><g
       id="g301"><g
         id="g303"
         clip-path="url(#clipPath307)"><text
           transform="matrix(1,0,0,-1,135.53,483.38)"
           style="font-variant:normal;font-weight:normal;font-size:11.04px;font-family:Calibri;-inkscape-font-specification:Calibri;writing-mode:lr-tb;fill:#595959;fill-opacity:1;fill-rule:nonzero;stroke:none"
           id="text311"><tspan
             x="0 5.0673599 10.56528"
             y="0"
             sodipodi:role="line"
             id="tspan309">Feb</tspan></text></g></g><g
       id="g313"><g
         id="g315"
         clip-path="url(#clipPath319)"><text
           transform="matrix(1,0,0,-1,171.84,483.38)"
           style="font-variant:normal;font-weight:normal;font-size:11.04px;font-family:Calibri;-inkscape-font-specification:Calibri;writing-mode:lr-tb;fill:#595959;fill-opacity:1;fill-rule:nonzero;stroke:none"
           id="text323"><tspan
             x="0 9.3619204 14.65008"
             y="0"
             sodipodi:role="line"
             id="tspan321">Mar</tspan></text></g></g><g
       id="g325"><g
         id="g327"
         clip-path="url(#clipPath331)"><text
           transform="matrix(1,0,0,-1,210.53,483.38)"
           style="font-variant:normal;font-weight:normal;font-size:11.04px;font-family:Calibri;-inkscape-font-specification:Calibri;writing-mode:lr-tb;fill:#595959;fill-opacity:1;fill-rule:nonzero;stroke:none"
           id="text335"><tspan
             x="0 6.3599601 12.12376"
             y="0"
             sodipodi:role="line"
             id="tspan333">Apr</tspan></text></g></g><g
       id="g337"><g
         id="g339"
         clip-path="url(#clipPath343)"><text
           transform="matrix(1,0,0,-1,246.1,483.38)"
           style="font-variant:normal;font-weight:normal;font-size:11.04px;font-family:Calibri;-inkscape-font-specification:Calibri;writing-mode:lr-tb;fill:#595959;fill-opacity:1;fill-rule:nonzero;stroke:none"
           id="text347"><tspan
             x="0 9.3619204 14.65008"
             y="0"
             sodipodi:role="line"
             id="tspan345">May</tspan></text></g></g><g
       id="g349"><g
         id="g351"
         clip-path="url(#clipPath355)"><text
           transform="matrix(1,0,0,-1,285.82,483.38)"
           style="font-variant:normal;font-weight:normal;font-size:11.04px;font-family:Calibri;-inkscape-font-specification:Calibri;writing-mode:lr-tb;fill:#595959;fill-opacity:1;fill-rule:nonzero;stroke:none"
           id="text359"><tspan
             x="0 3.47996 9.2341604"
             y="0"
             sodipodi:role="line"
             id="tspan357">Jun</tspan></text></g></g><g
       id="g361"><g
         id="g363"
         clip-path="url(#clipPath367)"><text
           transform="matrix(1,0,0,-1,324.84,483.38)"
           style="font-variant:normal;font-weight:normal;font-size:11.04px;font-family:Calibri;-inkscape-font-specification:Calibri;writing-mode:lr-tb;fill:#595959;fill-opacity:1;fill-rule:nonzero;stroke:none"
           id="text371"><tspan
             x="0 3.47996 9.2341604"
             y="0"
             sodipodi:role="line"
             id="tspan369">Jul</tspan></text></g></g><g
       id="g373"><g
         id="g375"
         clip-path="url(#clipPath379)"><text
           transform="matrix(1,0,0,-1,359.5,483.38)"
           style="font-variant:normal;font-weight:normal;font-size:11.04px;font-family:Calibri;-inkscape-font-specification:Calibri;writing-mode:lr-tb;fill:#595959;fill-opacity:1;fill-rule:nonzero;stroke:none"
           id="text383"><tspan
             x="0 6.3599601 12.12376"
             y="0"
             sodipodi:role="line"
             id="tspan381">Aug</tspan></text></g></g><g
       id="g385"><g
         id="g387"
         clip-path="url(#clipPath391)"><text
           transform="matrix(1,0,0,-1,397.42,483.38)"
           style="font-variant:normal;font-weight:normal;font-size:11.04px;font-family:Calibri;-inkscape-font-specification:Calibri;writing-mode:lr-tb;fill:#595959;fill-opacity:1;fill-rule:nonzero;stroke:none"
           id="text395"><tspan
             x="0 5.0673599 10.56528"
             y="0"
             sodipodi:role="line"
             id="tspan393">Sep</tspan></text></g></g><g
       id="g397"><g
         id="g399"
         clip-path="url(#clipPath403)"><text
           transform="matrix(1,0,0,-1,435.19,483.38)"
           style="font-variant:normal;font-weight:normal;font-size:11.04px;font-family:Calibri;-inkscape-font-specification:Calibri;writing-mode:lr-tb;fill:#595959;fill-opacity:1;fill-rule:nonzero;stroke:none"
           id="text407"><tspan
             x="0 7.3084798 11.87904"
             y="0"
             sodipodi:role="line"
             id="tspan405">Oct</tspan></text></g></g><g
       id="g409"><g
         id="g411"
         clip-path="url(#clipPath415)"><text
           transform="matrix(1,0,0,-1,471.48,483.38)"
           style="font-variant:normal;font-weight:normal;font-size:11.04px;font-family:Calibri;-inkscape-font-specification:Calibri;writing-mode:lr-tb;fill:#595959;fill-opacity:1;fill-rule:nonzero;stroke:none"
           id="text419"><tspan
             x="0 7.0766401 12.94992"
             y="0"
             sodipodi:role="line"
             id="tspan417">Nov</tspan></text></g></g><g
       id="g421"><g
         id="g423"
         clip-path="url(#clipPath427)"><text
           transform="matrix(1,0,0,-1,509.38,483.38)"
           style="font-variant:normal;font-weight:normal;font-size:11.04px;font-family:Calibri;-inkscape-font-specification:Calibri;writing-mode:lr-tb;fill:#595959;fill-opacity:1;fill-rule:nonzero;stroke:none"
           id="text431"><tspan
             x="0 6.7233601 12.22128"
             y="0"
             sodipodi:role="line"
             id="tspan429">Dec</tspan></text></g></g><g
       id="g433"><g
         id="g435"
         clip-path="url(#clipPath439)"><text
           transform="matrix(-4.4e-8,1,1,4.4e-8,73.344,552.48)"
           style="font-variant:normal;font-weight:normal;font-size:11.04px;font-family:Calibri;-inkscape-font-specification:Calibri;writing-mode:lr-tb;fill:#595959;fill-opacity:1;fill-rule:nonzero;stroke:none"
           id="text443"><tspan
             x="0 7.0766401 12.83952 21.704639 27.46752 32.965439 36.818401 39.225121 45.0984 48.465599 50.861279 58.169762 63.965759 67.664162 72.334084 78.207359 87.072479 92.570396"
             y="0"
             sodipodi:role="line"
             id="tspan441">Number of Outcomes</tspan></text></g></g><g
       id="g445"><g
         id="g447"
         clip-path="url(#clipPath451)"><text
           transform="matrix(1,0,0,-1,279.58,466.94)"
           style="font-variant:normal;font-weight:normal;font-size:11.04px;font-family:Calibri;-inkscape-font-specification:Calibri;writing-mode:lr-tb;fill:#595959;fill-opacity:1;fill-rule:nonzero;stroke:none"
           id="text455"><tspan
             x="0 4.66992 9.9580803 15.70992 21.472799 26.142719 31.938721 34.312321 43.784641 49.657921 55.420799 59.119202"
             y="0"
             sodipodi:role="line"
             id="tspan453">Launch Month</tspan></text></g></g><g
       id="g457"><g
         id="g459"
         clip-path="url(#clipPath463)"><text
           transform="matrix(1,0,0,-1,199.92,717.89)"
           style="font-variant:normal;font-weight:bold;font-size:13.2px;font-family:Calibri;-inkscape-font-specification:Calibri-Bold;writing-mode:lr-tb;fill:#595959;fill-opacity:1;fill-rule:nonzero;stroke:none"
           id="text467"><tspan
             x="0 6.4812002 13.5696 20.156401 26.518801 30.954 37.554001 42.240002 45.341999 54.225601 61.313999 65.749199 71.148003 78.249603 88.902 95.501999 100.7688 104.0028 110.9592 117.216 120.1992 125.8224 132.3036 139.392 146.48039 151.998 159.0864 162.0696 170.34599 176.7084 181.1436"
             y="0"
             sodipodi:role="line"
             id="tspan465">Theater Outcomes by Launch Date</tspan></text></g></g><path
       d="m 428.57,650.22 h 77.635 v 42.145 H 428.57 Z"
       style="fill:#ffffff;fill-opacity:1;fill-rule:evenodd;stroke:none"
       id="path469" /><path
       d="m 428.57,650.22 h 77.635 v 42.145 H 428.57 Z"
       style="fill:none;stroke:#bfbfbf;stroke-width:0.75;stroke-linecap:butt;stroke-linejoin:round;stroke-miterlimit:10;stroke-dasharray:none;stroke-opacity:1"
       id="path471" /><path
       d="m 436.53,685.34 h 19.2"
       style="fill:none;stroke:#4472c4;stroke-width:1.75;stroke-linecap:round;stroke-linejoin:round;stroke-miterlimit:10;stroke-dasharray:none;stroke-opacity:1"
       id="path473" /><path
       d="m 448.56,685.44 c 0,-1.39 -1.13,-2.52 -2.52,-2.52 -1.39,0 -2.52,1.13 -2.52,2.52 0,1.39 1.13,2.52 2.52,2.52 1.39,0 2.52,-1.13 2.52,-2.52 z"
       style="fill:#4472c4;fill-opacity:1;fill-rule:nonzero;stroke:none"
       id="path475" /><path
       d="m 448.56,685.44 c 0,-1.39 -1.13,-2.52 -2.52,-2.52 -1.39,0 -2.52,1.13 -2.52,2.52 0,1.39 1.13,2.52 2.52,2.52 1.39,0 2.52,-1.13 2.52,-2.52 z"
       style="fill:none;stroke:#4472c4;stroke-width:0.75;stroke-linecap:butt;stroke-linejoin:round;stroke-miterlimit:10;stroke-dasharray:none;stroke-opacity:1"
       id="path477" /><g
       id="g479"><g
         id="g481"
         clip-path="url(#clipPath485)"><text
           transform="matrix(1,0,0,-1,457.85,682.49)"
           style="font-variant:normal;font-weight:normal;font-size:9.96px;font-family:Calibri;-inkscape-font-specification:Calibri;writing-mode:lr-tb;fill:#595959;fill-opacity:1;fill-rule:nonzero;stroke:none"
           id="text489"><tspan
             x="0 3.9541199 9.1134005 13.42608 17.63916 22.54944 26.503559 30.45768 33.455639 38.72448"
             y="0"
             sodipodi:role="line"
             id="tspan487">successful</tspan></text></g></g><path
       d="m 436.53,671.29 h 19.2"
       style="fill:none;stroke:#ffc000;stroke-width:1.75;stroke-linecap:round;stroke-linejoin:round;stroke-miterlimit:10;stroke-dasharray:none;stroke-opacity:1"
       id="path491" /><path
       d="m 448.56,671.4 c 0,-1.39 -1.13,-2.52 -2.52,-2.52 -1.39,0 -2.52,1.13 -2.52,2.52 0,1.39 1.13,2.52 2.52,2.52 1.39,0 2.52,-1.13 2.52,-2.52 z"
       style="fill:#ffc000;fill-opacity:1;fill-rule:nonzero;stroke:none"
       id="path493" /><path
       d="m 448.56,671.4 c 0,-1.39 -1.13,-2.52 -2.52,-2.52 -1.39,0 -2.52,1.13 -2.52,2.52 0,1.39 1.13,2.52 2.52,2.52 1.39,0 2.52,-1.13 2.52,-2.52 z"
       style="fill:none;stroke:#ffc000;stroke-width:0.75;stroke-linecap:butt;stroke-linejoin:round;stroke-miterlimit:10;stroke-dasharray:none;stroke-opacity:1"
       id="path495" /><g
       id="g497"><g
         id="g499"
         clip-path="url(#clipPath503)"><text
           transform="matrix(1,0,0,-1,457.85,668.45)"
           style="font-variant:normal;font-weight:normal;font-size:9.96px;font-family:Calibri;-inkscape-font-specification:Calibri;writing-mode:lr-tb;fill:#595959;fill-opacity:1;fill-rule:nonzero;stroke:none"
           id="text507"><tspan
             x="0 2.9979601 7.7687998 10.0596 12.46992 17.39016"
             y="0"
             sodipodi:role="line"
             id="tspan505">failed</tspan></text></g></g><path
       d="m 436.53,657.24 h 19.2"
       style="fill:none;stroke:#92d050;stroke-width:1.75;stroke-linecap:round;stroke-linejoin:round;stroke-miterlimit:10;stroke-dasharray:none;stroke-opacity:1"
       id="path509" /><path
       d="m 448.56,657.36 c 0,-1.39 -1.13,-2.52 -2.52,-2.52 -1.39,0 -2.52,1.13 -2.52,2.52 0,1.39 1.13,2.52 2.52,2.52 1.39,0 2.52,-1.13 2.52,-2.52 z"
       style="fill:#92d050;fill-opacity:1;fill-rule:nonzero;stroke:none"
       id="path511" /><path
       d="m 448.56,657.36 c 0,-1.39 -1.13,-2.52 -2.52,-2.52 -1.39,0 -2.52,1.13 -2.52,2.52 0,1.39 1.13,2.52 2.52,2.52 1.39,0 2.52,-1.13 2.52,-2.52 z"
       style="fill:none;stroke:#92d050;stroke-width:0.75;stroke-linecap:butt;stroke-linejoin:round;stroke-miterlimit:10;stroke-dasharray:none;stroke-opacity:1"
       id="path513" /><g
       id="g515"><g
         id="g517"
         clip-path="url(#clipPath521)"><text
           transform="matrix(1,0,0,-1,457.85,654.38)"
           style="font-variant:normal;font-weight:normal;font-size:9.96px;font-family:Calibri;-inkscape-font-specification:Calibri;writing-mode:lr-tb;fill:#595959;fill-opacity:1;fill-rule:nonzero;stroke:none"
           id="text525"><tspan
             x="0 4.2130799 8.9839201 14.27268 18.48576 23.5056 25.7964 30.70668"
             y="0"
             sodipodi:role="line"
             id="tspan523">canceled</tspan></text></g></g><g
       id="g527"><g
         id="g529"
         clip-path="url(#clipPath533)"><path
           d="M 50.4,451.5 H 537.17 V 738 H 50.4 Z"
           style="fill:none;stroke:#000000;stroke-width:0.75;stroke-linecap:butt;stroke-linejoin:round;stroke-miterlimit:10;stroke-dasharray:none;stroke-opacity:1"
           id="path535" /></g></g></g></svg>
